M48
;DRILL file {KiCad 4.1.0-alpha+201607160317+6981~46~ubuntu14.04.1-product} date Mon Jul 18 13:23:06 2016
;FORMAT={-:-/ absolute / inch / decimal}
FMAT,2
INCH,TZ
T1C0.024
T2C0.031
T3C0.039
T4C0.051
%
G90
G05
M72
T1
X5.05Y-4.575
X5.05Y-4.625
X5.05Y-4.675
X5.05Y-4.725
X5.05Y-4.775
X5.05Y-4.925
X5.05Y-4.965
X5.125Y-4.575
X5.125Y-4.625
X5.125Y-4.675
X5.125Y-4.725
X5.125Y-4.775
X5.125Y-4.925
X5.125Y-4.965
X5.13Y-4.14
X5.136Y-3.744
X5.136Y-3.776
X5.165Y-4.175
X5.2Y-4.21
X5.215Y-4.535
X5.225Y-3.995
X5.24Y-4.25
X5.25Y-4.83
X5.25Y-4.875
X5.25Y-4.92
X5.275Y-4.285
X5.29Y-3.885
X5.325Y-4.315
X5.35Y-4.83
X5.35Y-4.875
X5.365Y-4.135
X5.375Y-4.315
X5.3772Y-4.46
X5.425Y-4.315
X5.45Y-3.855
X5.45Y-4.875
X5.465Y-4.46
X5.475Y-4.315
X5.525Y-4.315
X5.545Y-3.68
X5.575Y-4.315
X5.585Y-4.495
X5.625Y-4.315
X5.6378Y-4.05
X5.6383Y-4.0097
X5.655Y-4.83
X5.675Y-4.315
X5.68Y-3.885
X5.725Y-4.315
X5.775Y-4.315
X5.785Y-3.83
X5.81Y-4.135
X5.825Y-4.315
X5.855Y-4.135
X5.86Y-3.775
X5.87Y-3.635
X5.92Y-3.635
X5.92Y-3.685
X5.96Y-3.685
X5.96Y-3.87
X5.96Y-3.975
X5.96Y-3.76
X5.96Y-3.635
X5.96Y-4.075
X5.98Y-4.315
X6.Y-4.8009
X6.05Y-4.315
X6.05Y-4.48
X6.05Y-4.55
X6.1Y-4.315
X6.145Y-4.315
X6.15Y-4.375
X6.175Y-4.285
X6.2Y-4.255
X6.2Y-4.325
X6.2Y-4.375
X6.2Y-4.425
X6.225Y-3.65
X6.225Y-3.69
X6.225Y-3.735
X6.225Y-3.775
X6.225Y-3.825
X6.225Y-3.875
X6.225Y-3.925
X6.225Y-3.975
X6.225Y-4.025
X6.225Y-4.075
X6.225Y-4.125
X6.225Y-4.175
X6.225Y-4.225
X6.26Y-4.5
X6.26Y-4.265
X6.3Y-3.925
X6.35Y-4.735
X6.35Y-4.81
X6.35Y-4.875
X6.375Y-3.725
X6.375Y-4.125
X6.425Y-3.725
X6.425Y-4.125
X6.45Y-4.875
X6.475Y-3.75
X6.475Y-3.925
X6.475Y-4.1
X6.475Y-4.325
X6.475Y-4.375
X6.475Y-4.425
X6.475Y-4.475
X6.55Y-3.75
X6.55Y-3.925
X6.55Y-4.1
X6.55Y-4.325
X6.55Y-4.375
X6.55Y-4.425
X6.55Y-4.475
X6.55Y-4.575
X6.55Y-4.725
X6.55Y-4.875
X6.625Y-3.75
X6.625Y-3.925
X6.625Y-4.1
X6.625Y-4.325
X6.625Y-4.375
X6.625Y-4.425
X6.625Y-4.475
X6.65Y-4.5772
X6.65Y-4.725
X6.65Y-4.875
X6.7Y-3.75
X6.7Y-3.925
X6.7Y-4.1
X6.7Y-4.325
X6.7Y-4.375
X6.7Y-4.425
X6.7Y-4.475
X6.75Y-4.575
X6.75Y-4.725
X6.75Y-4.875
X6.765Y-4.325
X6.775Y-3.75
X6.775Y-3.925
X6.775Y-4.1
X6.825Y-4.325
X6.85Y-3.75
X6.85Y-3.925
X6.85Y-4.1
X6.85Y-4.575
X6.85Y-4.725
X6.85Y-4.875
X6.875Y-4.325
X6.915Y-4.265
X6.925Y-3.75
X6.925Y-3.925
X6.925Y-4.1
X6.925Y-4.375
X6.925Y-4.425
X6.925Y-4.475
X6.95Y-4.575
X6.95Y-4.725
X6.95Y-4.8
X6.95Y-4.875
X6.975Y-4.25
X6.975Y-3.735
X7.025Y-3.7327
X7.025Y-4.25
X7.05Y-4.92
X7.075Y-3.925
X7.075Y-4.1
X7.15Y-4.1
X7.15Y-4.575
X7.15Y-4.65
X7.15Y-4.725
X7.15Y-4.95
X7.2Y-4.575
X7.2Y-4.65
X7.2Y-4.725
X7.2Y-4.95
X7.25Y-4.575
X7.25Y-4.65
X7.25Y-4.725
X7.25Y-4.95
X7.265Y-3.65
X7.265Y-3.685
X7.265Y-4.18
T2
X5.91Y-3.825
X5.91Y-3.925
X5.91Y-4.025
X5.91Y-4.125
X5.91Y-4.325
X5.91Y-4.425
T3
X5.075Y-3.825
X5.075Y-3.925
X5.075Y-4.125
X5.075Y-4.225
T4
X5.3372Y-3.775
X5.475Y-3.775
X5.6128Y-3.775
T0
M30
